/* XPM */
static char *e4d8f372b2504ec3e1fdeb73f90f8063kA990AySccDxYcVj[] = {
/* columns rows colors chars-per-pixel */
"32 18 6 1 ",
"  c None",
". c #B22E69",
"X c #E54286",
"o c #FF6EAF",
"O c #FFA5D5",
"+ c white",
/* pixels */
"                                ",
"                                ",
"        +        ++++           ",
"       +X+     ++XooO++         ",
"      +o.++++++XXoooooO+        ",
"      +.XXooOo.XXooooOoO+       ",
"      +o........XXoooooo+       ",
"      ++XoOOoX.XXooooooo+       ",
"     +Xo.......XXooooooo+       ",
"      ++XoOOoX.XXooooooo+       ",
"      +o........XXoooooo+       ",
"      +.oXoOoo.XXooooooo+       ",
"      +o.++++++XXXooooo+        ",
"       +X+     ++Xooo++         ",
"        +        ++++           ",
"                                ",
"                                ",
"                                "
};
