/* XPM */
static char *sand[] = {
/* columns rows colors chars-per-pixel */
"64 64 15 1 ",
"  c #E5C986",
". c #E6CD8C",
"X c #E8CF8E",
"o c #E6D08F",
"O c #E6CF90",
"+ c #E8CF90",
"@ c #E7D294",
"# c #E8D395",
"$ c #E7D599",
"% c #E9D69A",
"& c #EAD99E",
"* c #ECDCA4",
"= c #EDDFA9",
"- c #EEE2AD",
"; c #EFE4B0",
/* pixels */
";;;;;;;;;;;;;;;;;;;;;;;;;;;;;;;;;;;;;;;;;;;;;;;;;;;;;;;;;;;;;;;;",
";;;;;;;;;;;;;;;;;;;;;;;;;;;;;;;;;;;;;;;;;;;;;;;;;;;;;;;;;;;;;;;;",
";;;;;;;;;;;;;;;;;;;;;;;;;;;;;;;;;;;;;;;;;;;;;;;;;;;;;;;;;;;;;;;;",
";;;;;;;=;=-;;;;;;;;;;--;-;-;;;;;;;;;;;;;;;;;;;;;;;;;;;;;;;;;;;;;",
";;;;--===-==-;;;;;;-;==-=====;==-==;;;--;;;;;;;=;;;;;;;;;;;;;;;;",
";;;;*==-====-;;;;=-=*-=-====*=**-*=-*-==-;=-**;=*;;;;;;;;;;;;;;;",
";;;----**=-*=;;;==-=*-****=**********==*=**====*-;;;;;;;;;;;;;;;",
";;;----=-=-;;;;;======-=====-=*&*****=****=-=**=*=;;;;;;;;;;;;;;",
";;=--------;;;;;---=-=-------**-**-**==*-===-===*=;;;;;;;-;;;;;;",
";;----;-;;;;;;;=-=-*=--**-=**&&-***--;-;---=-=%*%&=;--==-#*;;;;;",
";=-----;;;---*-&*&&&%%*%$$%%@#&%%&***;---;-**#X%&X%*&*&X*#%--;;;",
";-*-----**%%X#%##@#$.O....... @+#*&X%*%*-;%&*%##&X%##%&###&&*-;;",
";---*&**o@. .o%%$$$#..... o@@oo XXX #X&&&-#&*&%%%X&###&X#X##=-;;",
";;;;-#&#+ o+@@%%&$%%$##$$@o@@oo.XXXXX###%=&*=**&****&&###%&*-;;;",
";;=--%&%@@X+%%#%@%&%*%$%&&&%%%@%%XXXo.X#%&&**;=--=--*=*&***&=;;;",
"*=****-*&#%%%%*&***%&*******&&%&**%X@&#*&&**&;;;;;;;;-;=-=--;;;;",
"==-=****&&&*&&*=--=***=***===*--*&&&#******--;;;;;;;;;-;;-;-;;;;",
"--===*&*&**=**=---===*=====----&&*&**==;;;;-*---;;;;;;;;;;;;;;;;",
"-----==*******;=-;-------;;-----***&**=;;--**;-----;;;;;;;;;;;;;",
"-;;-;--===****=---;;;-;-;;;;;;;--=*==-;;-*-****----;;;;;;;;;;;;;",
";;;;;;--=;==;=*--;;;;;;;;;;;;;;;;----;-;;*-***&*=--;;;;;;;;;;;;;",
";;;;;;;;;=;;;;=---;;;;;;;;;;;;;;;;;;;;;;;--;;***==-;;;;;;;;;;;;;",
";;;;;;--=====----=-;;;;-=-;;;;;;;;;;;;;;;-;--=;-----;;;;;;;;;;;;",
";;;;;;*&;****=**====;;--*--=--;;;;;;;;;;;;;;;;----=;;-----;;;;;;",
";;;;;;-;*==*-****==*;---*=-----;;;;;;;;;;;-;-*-**-===*===-;;;;;;",
";;;;;;---=-=*-------;--=***=--;;;;;;;;;;;-*----**-*==****=;;;;;;",
";;;;;;;;;--=--------;;---===--;;;;;;;;;;;-=**-************;;;;;;",
";;;;;;;;;;;-;-;-;;;;;;-;------;;;;;;;;;;;;---**-----******-;;;;;",
";;;;;;;;;;-;;;;;;;;;;;;;-;;;;;;;;;;;;;;;;;-;---*----=====*-;;;;;",
";;;;;;;-=;--;;;;;;;;;;;;;;;;;;;;;;;;;;;;;;;--;;;;-;;-;-;;-;;;;;;",
";;;;;=--=--*-;;;;;;;;;;---;=-=---*;;;;;;;;;;;;;;;;;;;;-;;-;;;;;;",
";;;;-==-==*---;;;;;;;---**-**-&*===;=;;-----;--;;;;;;;;;;;;;;;;;",
";;;;;=-==**==-;;;;;-*&$$*&*****%&&&-&--&=*&--&*=;;=;--;;;;;;;;;;",
";;;;;-;=-==------*&O$$O$&$$%%%#$#&#%#%*#%%%&*&&*==**=*-*-;;;;;;;",
";;;;;=;---;---==$@@ OO$O$$$@@O$@oooo@o&oX%+X%%%%*=&&*&**&*;;;;;;",
";;;;;-;=-;-;&%&%@O$$$$$$$$@@$@@@oooo@#@&%@%%@#@#%&&%##+#&*=;;;;;",
";;;;;*;*=;&-&#%#@@$&&***==&%%@@@$%$#&#%o#%#oX#X#+#%#XX X#+&*;;;;",
";;;;--==-*==%&&&@@O$&==*=&*&%$$$%%%&-&*%&%%o##o#@#&%%%###&**;;;;",
";;;;;====**&%%%&%%%&&&****&&*****&%***-&*&&&%%&%&&&&&&****--;;;;",
";;;;-;---==*****==&&$$&**=&=*--------*--***==*=***=**=*===--;;;;",
";;;;;;;-;-------;=&*%%&=*====;------;;------;==-*;;=;==;;;==;;;;",
";;;;;;;;;;;;;-;;;==*=**===--====--;;;=-**=---==-**===;==;*;==;;;",
";;;;;;;;;;;;;;;;;;;====---===*=-**-;-**-*=**=*&-**==*=*======;;;",
";;;;;;;;-=;;;;;;;;;-;---=-===-==---;----=**-**=-**&**&**=*=====;",
";;;;;;-=-==;;;;;;;;;;;;-=======--;;;----======-&**&&**=-===-==;;",
";-=;=-====--;;;;;;;;;;;-=-======-;-;-----------==***=**==---;;;;",
"=-=*=--*==*=;;;;;;;;;;;-----=-=;;;;;;;;;;;;-;-;=*****-=-;;;-;;;;",
"-==*=====---;;;;;;;;;;;;-;--;-;;;;;;;;;;;;;;;;;-;*--=---;;;;;;;;",
"===*=====;;-;;;;-;;--;;;;;;-;;;;;;;;;;;;;;;;;;;*;;-;=;;-;;;;;;;;",
"-----;;;;;;;;;;;--==-;;=-==-;;;;;;;;;;;;;;;;=*=**;;-;;*;;;;;;;;;",
";;;-;;;;;;;;;--==**$*-**==***==;;;;;;;;;;;====-&=;;**-=-;;;;;;;;",
";;;;;;;;;;-==&&=*$$O$$O$$*&$%&*=;;;;;;;;;;;===-&**;=*;-*&;;;;;;;",
";;;;;;--**=*&&#&$$$$$$$$$$$@@$$*&&-&----;;;;------;--==-=-;;;;;;",
";;;;;==**+*%#%##$$O$O$$$$O$O.O@O%--&&%%=**=------;;--;-;-;;;;;;;",
";;;;-&+*@@%*#%%%$$$$$$&$$$$@OOO@#%%%%%oXXX&&&-;-;;;;;;-;;-;;;;;;",
";;;-&=&#$O%%+%#%$$*$$*&$$$$$OO@$$#%%&%o...o&%-;;;;;;;;=;;;;;;;;;",
";;;==*&**$$$@@@@$$$$$&$*&$$$@@@@##%**$$##oo#&*;;;;;*=-*;;;;;;;;;",
";;;-&&*&$*$*$*&*$*$$*&*$**&$@$$$%%&%%**%&#%%&&-;;*;-*;==-;;;;;;;",
";;;--*==****====*******=*==*=**&*-*-==*****&&&--;--*=*==-;;;;;;;",
";;;;-----============-----;;----------==-***----;**-=*-==;;;;;;;",
";;;;;;;;;;-;=-----;-----;;;;;;;;;;;;-;;-=---=-;;;;-===;-;;;;;;;;",
";;;;;;;;;;;---;-;-;-;;;;;;;;;;;;;;;;;;;-;-;-;;;;;;;;;-;-;;;;;;;;",
";;;;;;;;;;;;;;;;;;;;;;;;;;;;;;;;;;;;;;;;;;;;;;;;;;;;;;;;;;;;;;;;",
";;;;;;;;;;;;;;;;;;;;;;;;;;;;;;;;;;;;;;;;;;;;;;;;;;;;;;;;;;;;;;;;"
};
