/* XPM */
static char *sky[] = {
/* columns rows colors chars-per-pixel */
"64 64 125 2 ",
"   c #7CAECC",
".  c #77B1D2",
"X  c #7BB4D4",
"o  c #7BB7DA",
"O  c #7DBBDC",
"+  c #7DBFE1",
"@  c #7FC0DF",
"#  c #7DC3E3",
"$  c #7DC7E8",
"%  c #7FC9E9",
"&  c #8EB0CD",
"*  c #84B4D2",
"=  c #89B7D3",
"-  c #87B9D6",
";  c #8FBDD7",
":  c #84BCDA",
">  c #8BBEDA",
",  c #91B7D1",
"<  c #93BAD5",
"1  c #95BED9",
"2  c #99BED8",
"3  c #84C0DF",
"4  c #8CC2DE",
"5  c #94C3DD",
"6  c #9CC5DE",
"7  c #A1C3DB",
"8  c #A5C9DF",
"9  c #84C5E5",
"0  c #8BC6E3",
"q  c #81C8E7",
"w  c #8DCAE6",
"e  c #83C7E8",
"r  c #84CBEB",
"t  c #8BCDEB",
"y  c #92C6E2",
"u  c #93CAE5",
"i  c #9CCBE4",
"p  c #94CEEA",
"a  c #9CCEE8",
"s  c #84D0EF",
"d  c #8CD0ED",
"f  c #94D2ED",
"g  c #9DD2EC",
"h  c #85CFF0",
"j  c #84D1F1",
"k  c #8BD4F2",
"l  c #87D8F7",
"z  c #8ED9F7",
"x  c #87D9F8",
"c  c #8ADEFD",
"v  c #95D6F2",
"b  c #9BD6F1",
"n  c #95D9F5",
"m  c #9BDAF4",
"M  c #95DDF9",
"N  c #9CDEF9",
"B  c #A3CDE5",
"V  c #ABCCE2",
"C  c #A0CFE9",
"Z  c #B1CFE3",
"A  c #A7D0E5",
"S  c #A3D4EB",
"D  c #ABD5EB",
"F  c #A5D8EF",
"G  c #ADD8EE",
"H  c #B2D3E6",
"J  c #BCD5E6",
"K  c #B2D5E9",
"L  c #BAD5E8",
"P  c #B3DAED",
"I  c #BCDBED",
"U  c #A0D6F0",
"Y  c #A8D7F0",
"T  c #A4DBF3",
"R  c #ABDCF3",
"E  c #A4DFF8",
"W  c #AADFF8",
"Q  c #B3DEF2",
"!  c #BBDFF1",
"~  c #9EE1FC",
"^  c #ACE0F6",
"/  c #A4E3FC",
"(  c #ACE4FB",
")  c #ADE8FF",
"_  c #B4E2F6",
"`  c #BCE2F4",
"'  c #B3E5FA",
"]  c #BBE6F9",
"[  c #B5E9FE",
"{  c #BCEAFD",
"}  c #C2DDEE",
"|  c #CBDFED",
" . c #C2DFF0",
".. c #C2E0EF",
"X. c #CAE1EE",
"o. c #C3E4F4",
"O. c #CBE5F4",
"+. c #C4E8F6",
"@. c #CCE9F6",
"#. c #C2E7F8",
"$. c #C9E7F8",
"%. c #C3EBFC",
"&. c #CCEDFC",
"*. c #D2E6F3",
"=. c #D4EAF5",
"-. c #DBECF5",
";. c #D4EEFA",
":. c #DAEFF9",
">. c #CEF0FE",
",. c #C5FFFF",
"<. c #CBFFFF",
"1. c #D4F1FE",
"2. c #DBF3FD",
"3. c #D3FFFF",
"4. c #DDFFFF",
"5. c #E2EEF5",
"6. c #E0EFF8",
"7. c #E6F0F6",
"8. c #E4F5FD",
"9. c #EAF6FC",
"0. c #E4FEFF",
"q. c #ECFCFF",
"w. c #F0F7FB",
"e. c #F4FDFE",
"r. c #FDFFFF",
/* pixels */
"{ [ { { ( #.} J H S G ^ / ] 1.>.[ { ,.2.2.2.%.%.{ ) / ) M c c >./ < & , 5 6 f ~ &.1.' T R G b f f f v M / %.1.8.8.9.0.%.E #.&.%.",
"/ / [ >.o.} L 8 6 6 B T m ] >.[ / / ) [ >.2.>.{ 1.%./ ~ n ~ / [ { g i A A P _ ^ %.&.' E G R b k n E ^ [ %.2.2.1.1.2.2.( W $.+.' ",
"/ ~ %.$.} 8 5 5 4 5 i m m ( { { [ / [ [ { { [ ] ] _ M v n M M ) [ / S D T ] #.{ [ { ' E T T T W ] %.%.1.1.&.%.] [ %.>.( W o.` E ",
"[ / %.+.L 5 3.q.q.0.q.q.b m ] &.{ ) %.%.[ ( ' _ A p w r s k E { [ / _ ' M ( ] [ [ [ ] ] _ _ ' &.1.&.&.%.>._ m R o.#.] ( m T T ' ",
"[ [ 1.o.q.0.0.q.r.e.q.e.e.r.r.&.&.{ [ %._ R D B 6 4 @ $ d v ^ %.%.[ $.] ` ] { ( [ &.1.1.&.%.{ &.q.] ' ' W G S K } ` / m v b v ^ ",
"/ >.2.r.r.r.r.r.r.r.r.r.r.e.9.&.&.[ ( _ P i 6 > - : O q d T ' 1.1.>.1.1.>.>.%.) { &.1.;.>.%.] e.q.0.0.e.e.r.r.r.D G F m f v k N ",
"~ { 1.e.r.r.r.r.r.r.r.r.9.9.8.%.%.' R g u 5 ; * X o 3 u E ] >.2.4.2.1.>.>.[ { [ { ] ' ' { #.e.r.r.r.r.r.r.r.e.r.r.r.g f p w t m ",
"/ %.>.0.8.e.e.w.8.2.1.1.2.0.( { %._ R u 4 1 1 - 4.0.e._ { { { >.2.&.[ [ [ [ [ { ' / m z ~ ^ 7.8.9.w.e.w.9.:.O.9.r.r.g i i 9 f M ",
"/ %.#.[ 2.9.8.2.8.2.&.( ~ M / ] $.] G a i 6 6 3.4.q.e.e.) ) ~ ' ' / M M ~ ' [ { ( T v j j d T @.O.=.@.` ` _ _ &.8.8.g S B q f E ",
"( { ^ E ' %.;.2.>.] ' ' ^ / ^ ] &.] R S A H 0.0.q.e.q.0.e.M v g p h r h n ^ @.;.' T f 0.4.f f G =.7.:.=.R k v 1.&.@.G S f f T ' ",
"[ ' W T F P O.=.;.$.] ] ' ] ] q.q.e.e.q.q.e.e.r.r.e.q.e.r.d g S 0 w p f b 0.q.e.q.0.e.0.0.q.q.G I @.=.;.:.+.&.$.' / ` W k / ] { ",
"%.%.W S f a C P ! o.e.e.q.0.0.0.q.r.r.q.e.r.r.r.r.r.r.e.8.7.i i w u 4.0.q.q.q.e.e.q.0.0.q.w.9.K Q R P $.:.:.2.2.[ ] ] ] ' { >.[ ",
"2.@.R p 0 9 9 w f 9.r.r.r.e.q.e.r.r.r.r.r.r.r.r.r.r.r.e.7.} 6 6 0 0.q.r.r.r.r.r.r.e.q.e.e.@.X.S S g T R ` @.;.>.[ [ %.%.>.>.1.1.",
"0.&.T p 0 4 : 9 :.:.e.r.r.r.r.r.r.r.r.r.e.r.w.w.e.r.r.5.O.K 5 i 0.q.r.r.r.r.r.r.r.r.r.e.:.P G i B D g S I ` ' ^ [ [ [ { &.2.2.2.",
"8.#.b p w > : @ P o.8.8.9.r.r.r.r.e.9.9.8.8.;.:.5.9.5.o.I I i 9.e.r.r.r.e.e.r.r.r.r.w.=.P O 3 5 B B B B D P ^ ( { >.[ %.>.2.2.0.",
"1.W b p 0 O # + 0 P o.$.&.2.9.9.2.2.2.2.2.@.o.$.=. .L D S K ` w.r.r.r.e.9.9.e.r.r.8.8.o.S o X 4 7 8 B i i D ..@.#.%.>.2.2.1.2.2.",
"&._ f w # O O @ y u v k v &.;.2.;.1.2.%.] ] _ ] @.=.=.$._ ] $.2.e.r.9.0.2.1.%.1.1.1.2.o.g O > < 2 6 i i B D o.@.$.#.&.2.8.1.1.>.",
"&.! g w 0 9 O : w u r v m ^ o.#.%.&.&.{ ] &.2.1.2.2.:.:.#.#.2.2.:.e.2.;.#.{ %.%.>.( ` Y w 4 1 1 1 8 C V K P } I ` $.@.;.;.1.>.1.",
"$.U f p u 4 9 3 0 t f b W ] o.{ [ { %.{ %.1.&.1.1.>.%.%.&.2.8.;._ Q &.` ' ' { ~ ) ( #._ f p i 6 B J I Q Q _ R F R ' o.;.;.;.2.2.",
"o.T f r 0 3 : 0 u a R ` ] [ ( r.r.[ { %.{ [ r.r.r.>.%./ %.2.2._ W U F b m k j M / / ] e.0.0.0.0.} O.o.0.4.^ Y Q ` _ ` $.*.=.*.$.",
"} ! S p t e 0 p S P ` o.] ( r.r.r.r.r.r.r.r.r.r.r.r.r.) { &.#.( b g g v s % j v E / r.r.e.e.e.e.w.q.0.0.4.4.q.` ` Q Q  .P G I I ",
"Z L H Z S b g b Q ] ] ] [ r.r.r.r.r.r.r.r.r.r.r.9.9.r.( ( / ( ` T f d j $ $ % k m r.r.e.r.r.r.r.r.e.e.e.e.e.r.Q R R Y P S p i V ",
"6 V } | | O.@.o.] ( ( ( 2.0.r.r.r.r.r.r.r.r.r.r.9.8.8./ m v M ` Q v h % $ O $ t m q.9.9.w.r.r.r.r.r.r.r.r.w.0.T R Y Y G K V 8 1 ",
"1 6 Z | -.5.6.=.o.Q E / ;.8.8.2.:.7.7.w.r.w.8.7.=.;.8.^ T f f g T v j r $ O # t E ' 9.q.9.9.8.0.2.2.2.7.2.;.:.g S g p S V Z 7 2 ",
"= 5 i I X.O.*.O.I G T ^ [ 8.8.$.` @.=.:.7.;.o.@.` ! ` W R p w p d f f r % # # r E ' [ %.9.q.9.2.:.2.:.=.2.g p i B u i i i y - X ",
"* 5 D P _ o.} P G G P _ ' { { ( ^ U o.P G Y d Q ` ` _ T F f r f d k b f r % % 3.0.( [ >.] M ^ Q 8.7.2.1.9 0 6 y u i B B 0 : X X ",
"2 u F R ^ G D A A A P ` Q ' _ ' ' R T g 9 r r W o.#.#.( T f p g t k Q ` 0.3.,.3.4.0.q.q.q.4.4.0.0.3.,.,.3.0.5 0 u C C u y 4 - < ",
"4 0 f m v S A a a S } } E T b v T R ` R g f k E >.&.%.[ ( M v b v m 0.q.q.q.0.q.e.q.e.q.e.e.q.0.0.<.<.<.<.4.q.$ p b D a g B y y ",
"$ e d t 0 g i a D G O.o.m v f r t g _ P G T n / >.&.[ [ ( ~ ( ^ / 0.e.r.e.e.r.r.r.r.r.r.r.r.r.r.r.q.0.0.0.q.e.r m ^ ^ R T b w t ",
"% e 9 # 9 9 0 w T ` @.#.E g t % 9 f F G R R _ %.>.&.{ >.%.[ { ( r.e.r.r.r.e.e.r.r.r.r.r.r.r.r.r.r.r.e.r.r.r.r.r.$.%.#.] _ E z % ",
"j 0 : o X O 9 t E %.$.' W b r 0 y u g m E _ %.1.2.1.2.8.2.>.>.q.>.2.8.9.w.q.e.r.r.r.r.w.w.r.r.r.r.r.r.r.r.r.e.q.>.>.>.>.%.[ / x ",
"k *     . > 0 z [ 1.%.^ R f f p u f f 4.3.0.&.8.8.8.9.2.&.%.{ %.2.2.0.8.0.w.r.r.r.r.w.0.8.9.e.r.r.r.r.r.r.w.0.2.) ) [ %.%.[ ) x ",
") , & , 5 6 f ~ &.1._ T Q T m f r.r.q.4.4.q.r.e.e.r.r.e.4.q.e.%.{ [ { ,.&.9.9.5.7.-.=.@.>.9.e.e.9.e.e.e.w.w.2.2.{ ) / / ~ c c >.",
"[ g i V A P _ ( %.&.' E Y G T r.r.r.e.q.e.r.e.r.e.e.e.r.e.e.e.' / / [ 2.&.-.-.-.-.I I _ { 9.q.0.1.1.1.1.0.q.>.{ >.%./ ~ M ~ ~ [ ",
"[ E G F T _ %.[ [ { ' E T T 9.r.w.e.e.r.r.e.e.e.r.r.r.r.r.r.r.r./ ~ %.$.-.| *.< 4 5 B b 1.e.9.2.>.<.1.>.2.q.0.0.q._ v v n M M ) ",
"{ / _ _ M ' ] ' ' [ ] ] ` _ 0.9.e.9.e.e.e.q.q.e.r.r.e.r.9.9.e.e.) / %.@.H 5 - < 0.3.2.F b m ] $.{ ) %.{ ( q.0.q.e.r.e.t s k / ] ",
"%.[ #.#.' #.{ ) [ &.1.1.>.%.1.8.9.8.8.9.9.r.e.e.e.w.9.9.2.7.2.q.[ { ;.r.r.0.4.0.0.4.0.e.r.m ] &.&.{ [ %.r.r.e.r.r.r.8.q w v W $.",
"1.>.1.1.>.>.%.) { &.1.1.>.%.1.&.;.&.2.2.9.w.w.w.w.9.9.8.2.:.1.9./ %.r.r.w.9.0.e.e.r.r.r.r.` %.&.&.[ ^ r.9.9.r.e.7.-.X.# k E [ >.",
"2.2.>.>.%.{ { [ { ' ] ( { #.o.o.P _ o.=.:.8.7.8.:.=.` Q u w s m ~ e.9.0.0.9.r.r.r.e.r.r.8.] [ %.%.' r.r.7.5.5.X.H B 3 f / [ %.2.",
"2.>.{ [ [ [ [ q.q.r.r.r.w.W ` ` G G _ P o.=.=.=.@.+.G Q i 9 f m / %.2.2.8.9.r.r.9.8.9.8.2.( ( ] %.' Y 9.O.X.H 8 H K K _ ] %.{ 1.",
"' / M M / ( r.e.r.r.r.r.w.9.e.Q P ! P f ` @.` _ #.o.g S i q f / / %.%.>.2.0.9.9.0.1.1.&.N M / %.&.` Y i i 6 6 5 i I #.] ) ( ~ ' ",
"f r r k v e.r.e.w.e.r.e.9.e.w.G o.=.@.o.#.^ ' ] ' R R S p f T [ ) [ ^ / ` #.1.9.2.1.&.' ^ E / { $.#.R S A H P G G ` _ m ~ M v m ",
"w w p f #.#.8.9.7.2.7.=.2.9.9.G I @.@.=.;.+.+.$.' / ` W k ~ { %.{ ' R E S Q O.=.;.&.] ] ' ] ] ' ] ] Q _ Q ` o._ R T d d j d g g ",
"0 u a f T #.@.2.=.` P G o.5.=.K Q R Q @.:.2.8.2.{ [ ] ] ' ] >.[ %.#.E q.q.0.q.e.0.o.=.@.^ ` ' / / ] ` ^ W ] #._ v d r q 0 5 i i ",
"w w S G / / _ #.@.P S D 0 4 u S D g T R o.$.;.>.[ [ %.%.&.>.1.e.e.e.q.4.4.4.q.r.r.r.r.r.q.q.0.4.0._ ( M m Q o.o.f t 9 4 4 4 6 6 ",
"w f ` #.' / ( ' _ R A u 0 q 4 8.0.q.q.0.P ` ' ( [ [ [ { >.2.r.r.r.e.q.e.e.e.r.r.r.r.r.r.e.e.e.q.q.r.9.b m W ` ..G 0 y 6 4 4 5 i ",
"b #.&.{ ( ~ / ' #.#.P g 0 O 9.e.q.q.0.0.0.q.^ ( { >.{ { >.e.r.r.r.r.e.r.r.r.r.r.r.r.r.r.r.r.r.r.r.r.0.R R b Q o.I S u u y i i 0 ",
"1.2.>.[ ) ) ( { ] ] _ S 0 r.r.r.r.q.0.q.0.q.` @.#.%.>.2.2.8.8.9.q.9.9.9.7.8.r.r.r.w.r.r.r.r.r.r.e.9.;.#.` T Y ! o.} I D A G ! _ ",
"8.2.{ [ [ [ ' [ ' / ^ T 9.9.r.r.r.e.0.r.e.r.r.O.o.%.@.2.8.1.8.0.2.@.2.=.P D P =.7.7.9.2.1.8.e.9.8.2.%.%.] ` ] ] ;.=.=.O._ ` $.2.",
"=.&._ _ ' ^ ( ' ' ( ` Y O.=.7.w.r.e.q.e.r.r.r.o.` #.;.;.1.1.1.1.>.` g w S y 5 D O.2.$._ ' #.;.#.%.&.&.{ [ 1.1.1.2.2.2.1.] #.2.8.",
"' _ R T T T 0.4.0.e.r.9.o.o.=.7.r.r.r.r.e.r.r.e.R Q #.;.;.:.2.2.@.T f p u 4 9 3 0 d f T W _ #.] [ { %.{ %.>.>.>.1.1.%.%.$.2.8.;.",
"E S F b 8.r.e.0.q.r.r.r.2.@.X.7.9.w.e.r.9.9.r.w.e.e.! $.*.=.@.@.0.4.3.t 0 3 : 0 w g G ` ] ' [ { %.[ [ %.{ [ / [ %.>.%./ %.8.1._ ",
"b g g 8.;.8.r.r.r.r.r.r.r.w.8.9.9.9.e.e.9.0.r.w.w.w.Q o.P P P q.q.q.q.e.q.9 9 p S P o.o.] ' ( #.$.#.` #.{ ~ / { >.1.%.[ [ &.#.^ ",
"T f +.2.:.7.9.2.w.r.r.r.r.r.r.r.r.w.0.8.8.8.8.7.2.;.Y P a u 0.q.r.r.r.r.r.r.r.S R ` ] ] [ ' ] #.` ` ! _ / ( ) &.>.1.>.( ( / ' ] ",
"Q f j @.:.-.=.@.2.9.8.9.9.e.e.e.8.9.8.1.&.@.o._ ` $.Y G K V q.q.r.r.r.r.r.r.r.o.` ' ( ( [ { e.q.q.q.G g g ^ ] +.;.@.%./ m v M _ ",
"T v ^ _ ` ! Q +.2.2.0.q.9.9.9.8.2.2.9.2.;.$.` ` F a g a V e.e.e.r.e.7.9.e.r.e.=.o.Q / ~ [ r.r.r.0.0.0.q.S P _ e.e.e.#.^ T f f b ",
"f f v b f F S R $.1.8.0.9.0.8.8.7.e.e.9.w.6.:.u i i i i =.-.7.e.r.*.O.5.9.*.*.O.Q R Y ^ r.r.r.r.q.q.q.q.e.e.r.r.r.r.e.9.R p w f ",
"d k g f t q % j ~ / q.w.w.9.w.r.r.r.r.r.w.-.-.y u i S ....D A 7.7.X.X.=.7.` } P G G P 8.9.e.r.r.r.r.r.r.r.r.r.r.r.9.2.#.T f 0 p ",
"t j Q ` R f j w.q.e.r.r.r.r.r.r.r.r.r.w.:.*.5 4 w B B y K A A 7.5.X.o.1.E R D A V D P 7.w.e.e.r.r.e.r.r.r.w.w.9.7.2.1.&.E f f f ",
"m m _ o.@.o.^ e.q.9.e.r.r.r.r.r.r.r.r.=.} X.0 9 f S S S g i 5 5 1 9 m f f S S i i S } ` 1.2.:.2.9.9.2.@.;.@.@.;.2.&.%.[ ( m v b ",
"N N ^ _ &.@.&.9.9.w.e.e.r.r.r.e.0.9.8.;.a w r s m ^ Q R F m t r $ q d d w i i i D G ..o.M f f r t S _ Q R F v / >.>.{ [ ( ~ / ^ ",
"/ ( ' %.&.%.&.1.9.9.7.8.8.8.8.8.1.0.9.8.o.] ] %.%.%.#.] ' E k s % q q 3 9 0 w u T ` =.#.W f t $ 9 p F R R Q _ %.>.&.%.%.%.{ ] ( ",
") { %.&.%.[ %.;.:.;.o.2.2.8.2.1.1.8.2.1.1.1.>.1.>.&.&.>.%.[ / l j 0 O o o : 9 t ~ %.&._ R m r 0 0 u f f m ' #.1.2.1.:.8.2.>.>.[ ",
"%.%.%.%./ / ` @.o.` _ ^ ' >.>.{ >.1.2.2.>.>.[ [ ) ) [ %.%.[ ( l k *     . : 0 l { 1.#.^ R f f f u g f n M [ 1.8.8.8.9.4.%.%.%.{ "
};
